<?xml version="1.0" standalone="no"?>
<!DOCTYPE svg PUBLIC "-//W3C//DTD SVG 20010904//EN"
 "http://www.w3.org/TR/2001/REC-SVG-20010904/DTD/svg10.dtd">
<svg version="1.0" xmlns="http://www.w3.org/2000/svg"
 width="512.000000pt" height="512.000000pt" viewBox="0 0 512.000000 512.000000"
 preserveAspectRatio="xMidYMid meet">

<g transform="translate(0.000000,512.000000) scale(0.100000,-0.100000)"
fill="#000000" stroke="none">
<path d="M378 4989 c-171 -40 -322 -209 -363 -404 -22 -104 -22 -2975 0 -3078
43 -203 195 -369 373 -406 66 -14 680 -15 716 -1 61 23 79 112 32 159 l-26 26
-348 5 c-334 5 -349 6 -388 27 -56 30 -119 103 -146 172 l-23 56 0 960 0 960
2173 3 2172 2 0 -510 0 -510 -37 0 c-46 0 -118 -32 -154 -66 l-27 -26 -68 30
c-38 16 -79 33 -91 36 -17 5 -23 17 -28 59 -12 88 -55 151 -129 189 -48 25
-223 36 -311 19 -109 -20 -181 -97 -192 -204 l-5 -53 -89 -38 -89 -38 -31 27
c-54 44 -90 58 -154 58 -41 0 -72 -6 -100 -21 -54 -28 -220 -198 -240 -244
-31 -76 -9 -186 50 -248 l25 -26 -39 -89 -39 -90 -53 -5 c-62 -7 -103 -26
-140 -67 -53 -57 -63 -88 -67 -230 l-4 -133 -310 0 -310 0 -29 -29 c-49 -49
-35 -128 28 -160 15 -8 156 -11 455 -11 l433 0 38 -90 39 -91 -30 -33 c-63
-72 -78 -176 -36 -258 26 -51 185 -205 235 -228 62 -28 133 -26 196 5 28 14
58 34 67 44 16 18 20 17 105 -18 l89 -36 11 -65 c14 -84 50 -135 120 -172 50
-26 60 -28 183 -28 72 0 148 5 169 11 84 26 146 107 156 205 3 30 11 54 17 54
6 0 47 16 91 35 l79 35 31 -30 c63 -61 171 -78 250 -40 52 25 220 195 240 243
32 78 13 182 -45 242 l-30 31 35 79 c19 44 35 86 35 93 0 7 14 12 36 12 65 0
117 22 164 70 59 59 70 98 70 258 0 123 -2 133 -28 183 -38 73 -92 110 -172
118 l-62 6 -23 61 c-13 34 -30 75 -39 92 -14 27 -14 31 0 43 9 7 29 36 45 64
53 92 37 192 -46 284 l-34 37 -3 1125 -3 1124 -27 81 c-47 136 -145 261 -246
313 -105 54 0 51 -2112 50 -1092 -1 -1972 -5 -1992 -10z m3997 -216 c58 -31
110 -89 142 -158 l28 -60 3 -442 3 -443 -2176 0 -2176 0 3 433 c4 420 4 434
26 488 43 109 105 172 191 195 36 10 470 12 1981 11 l1935 -2 40 -22z m-435
-2355 c0 -49 6 -84 18 -108 15 -32 26 -38 122 -70 58 -20 137 -52 176 -73 103
-54 122 -51 212 36 l52 51 75 -74 c41 -41 75 -79 75 -85 0 -6 -22 -33 -50 -60
-27 -27 -55 -64 -61 -82 -10 -31 -7 -42 39 -136 28 -56 60 -134 71 -173 30
-101 50 -117 159 -124 l87 -5 3 -99 c2 -64 -1 -103 -9 -112 -8 -10 -35 -14
-89 -14 -104 0 -119 -12 -155 -127 -15 -49 -47 -127 -72 -175 -41 -79 -44 -89
-34 -120 6 -19 34 -56 61 -83 28 -27 50 -54 50 -60 0 -13 -142 -155 -156 -155
-5 0 -34 25 -64 55 -75 76 -88 77 -212 16 -57 -27 -135 -59 -175 -71 -98 -28
-113 -48 -113 -150 0 -54 -4 -81 -14 -89 -9 -8 -48 -11 -112 -9 l-99 3 -5 85
c-8 121 -16 130 -145 170 -38 12 -111 42 -161 67 -110 55 -124 54 -204 -23
-31 -29 -61 -54 -66 -54 -5 0 -43 34 -84 75 l-74 75 45 47 c95 99 97 116 35
234 -25 46 -54 118 -66 159 -32 109 -50 124 -158 130 l-87 5 -3 113 -3 112 78
0 c116 0 133 13 172 137 18 54 50 130 72 170 21 40 39 81 39 93 0 32 -24 71
-74 120 -25 24 -46 49 -46 54 0 16 133 146 148 146 8 0 41 -25 74 -55 74 -69
99 -71 201 -16 40 22 108 51 152 66 139 45 145 52 145 169 0 40 3 76 7 79 3 4
55 7 115 7 l108 0 0 -72z"/>
<path d="M843 4556 c-100 -32 -178 -99 -215 -183 -76 -171 -5 -369 161 -450
49 -24 68 -28 146 -28 108 0 159 20 233 89 72 67 106 148 106 248 0 65 -5 86
-33 142 -35 73 -96 132 -168 166 -59 28 -171 35 -230 16z m171 -217 c116 -91
30 -278 -112 -240 -83 23 -126 116 -87 191 25 49 62 70 120 70 38 0 60 -6 79
-21z"/>
<path d="M1727 4560 c-154 -39 -270 -203 -254 -360 9 -80 38 -142 97 -204 73
-77 131 -101 245 -101 107 0 163 23 235 95 74 73 95 127 95 240 0 78 -5 103
-23 141 -58 117 -165 189 -289 195 -38 2 -85 -1 -106 -6z m180 -244 c27 -30
33 -44 33 -82 0 -80 -50 -134 -125 -134 -71 0 -135 58 -135 123 0 83 62 141
144 134 42 -4 55 -10 83 -41z"/>
<path d="M2905 4556 c-96 -31 -172 -96 -214 -186 -22 -46 -26 -69 -26 -145 0
-83 2 -95 34 -153 39 -71 78 -110 154 -150 l52 -27 540 0 540 0 58 30 c118 59
187 172 187 305 0 136 -72 250 -195 307 l-60 28 -515 2 c-396 2 -524 -1 -555
-11z m1066 -219 c90 -60 66 -207 -39 -237 -41 -11 -907 -14 -962 -4 -43 9 -96
63 -104 107 -9 48 17 111 57 136 31 20 47 21 523 21 l491 0 34 -23z"/>
<path d="M3680 2004 c-212 -55 -390 -233 -445 -444 -26 -98 -17 -272 18 -362
89 -231 295 -386 538 -404 396 -29 722 340 645 727 -48 237 -223 424 -453 483
-76 20 -229 20 -303 0z m324 -222 c258 -121 320 -451 125 -657 -198 -210 -538
-158 -666 102 -31 63 -37 87 -41 157 -5 103 13 171 67 252 49 74 125 132 210
162 95 33 213 27 305 -16z"/>
<path d="M1583 2890 c-12 -5 -29 -20 -38 -33 -19 -29 -216 -843 -218 -900 -1
-32 4 -44 31 -68 57 -51 137 -30 161 44 23 71 202 834 203 863 0 42 -16 71
-52 89 -32 17 -54 18 -87 5z"/>
<path d="M914 2807 c-42 -24 -324 -351 -336 -389 -20 -67 -2 -99 158 -279 80
-90 155 -172 166 -181 12 -11 37 -18 62 -18 58 0 96 39 96 97 0 38 -8 50 -130
188 -71 80 -130 150 -130 154 0 4 26 36 58 72 209 236 202 227 202 270 0 76
-81 124 -146 86z"/>
<path d="M2022 2795 c-35 -30 -45 -69 -27 -110 7 -16 68 -91 134 -165 66 -74
121 -138 121 -141 0 -4 -57 -70 -126 -148 -150 -169 -166 -207 -107 -265 19
-20 36 -26 67 -26 22 0 48 6 57 13 44 33 320 356 330 385 21 63 5 95 -109 225
-59 67 -136 152 -172 190 -57 58 -70 67 -102 67 -24 0 -46 -8 -66 -25z"/>
<path d="M1459 1275 c-58 -32 -61 -114 -6 -161 26 -22 38 -25 71 -21 56 8 86
44 86 102 0 36 -5 47 -31 69 -34 29 -79 33 -120 11z"/>
</g>
</svg>
